<svg version="1.2" xmlns="http://www.w3.org/2000/svg" viewBox="0 0 1550 291" width="1550" height="291">
	<title>logo-blue (1)-svg</title>
	<defs>
		<clipPath clipPathUnits="userSpaceOnUse" id="cp1">
			<path d="m0 1h1550v289h-1550z"/>
		</clipPath>
	</defs>
	<style>
		.s0 { fill: #ffffff } 
		.s1 { fill: #ed1c24 } 
		.s2 { fill: #28334a } 
	</style>
	<g id="Clip-Path" clip-path="url(#cp1)">
		<g id="Layer">
			<path id="Layer" class="s0" d="m0 73c0-39.8 32.2-72 72-72h145.5c39.8 0 72 32.2 72 72v145c0 39.8-32.2 72-72 72h-145.5c-39.8 0-72-32.2-72-72z"/>
			<path id="Layer" class="s1" d="m44.1 30.2c30.3 26.1 66 41 98.2 41 34.2 0 74.9-16.3 103.9-41.7l14.4-14.3c-12.4-9.3-27.4-14.2-42.8-14.2h-146.1c-15.4 0-30.4 4.9-42.7 14.1z"/>
			<path id="Layer" class="s1" d="m216.7 145.5c0.3 16.3 3.8 32.4 10.2 47.3-8.4-4.9-17.2-9.2-26.2-12.9-3.1-11.2-4.7-22.8-4.8-34.4 0-26.5 8.9-51.3 19.5-71.5-22.8 11.2-47.7 17.4-73.1 18-28 0-58.1-9.6-85.8-27-5.7-3.7-11.3-7.5-16.6-11.8 0 0-7.4-5.7-11.4-9.1l-14.2-14.3c-9.3 12.3-14.3 27.3-14.3 42.8v145.8c0 15.4 5 30.3 14.2 42.6l15-15c27.3-31.8 43.6-69.3 43.6-100.5-0.4-16.4-3.9-32.5-10.5-47.5 8.5 5 17.3 9.4 26.5 13 3.1 11.3 4.7 22.9 4.8 34.5-0.6 24.4-7 48.4-18.8 69.9 21.4-11.1 45-17.2 69.1-17.8 36.5 0 73.4 16.9 100.3 35.9q2.8 2 5.5 4.1c0 0 7.3 5.7 11.3 9.2l14.2 14.2c9.3-12.3 14.3-27.3 14.3-42.7v-145.7c0-15.4-5-30.4-14.2-42.7l-15 15c-27.3 31.8-43.6 69.4-43.6 100.6z"/>
			<path id="Layer" class="s1" d="m245.5 260.8c-24.3-20.6-63.5-42.4-101.6-42.4-32.2 0-69.8 16.1-100.6 43l-14.4 14.4c12.4 9.2 27.4 14.2 42.9 14.2h146c15.4 0 30.4-4.9 42.7-14.2z"/>
			<path id="Layer" class="s0" d="m114.8 175.3c0 0 12.1-14 12.1-29.8 0-15.8-12.1-29.9-12.1-29.9 0 0 14.1 12 30 12 15.3 0 29.9-12 29.9-12 0 0-12 14.1-12 29.9 0 15.8 12 29.8 12 29.8 0 0-14.1-12-29.9-12-15.4 0-30 12-30 12z"/>
			<path id="Layer" fill-rule="evenodd" class="s2" d="m541 191.4c0 35.5-25.8 56.1-65.8 56.1h-86.1v-194.7h85.6c35.9 0 59.6 17.3 59.6 50.7 0 19.4-8.4 31.1-24.3 39.2 21 6.9 31 25.8 31 48.7zm-71.6-100.7h-40.5v39.2h41.6c16.4 0 23.7-6.7 23.7-19.8 0-14.2-8.1-19.4-24.8-19.4zm31.2 97.3c0-14.2-5.9-21.7-26.5-21.7h-45.1v43.4h45.4c20.3 0 26.2-8.6 26.2-21.7z"/>
			<path id="Layer" fill-rule="evenodd" class="s2" d="m721.2 181.3h-117.5c2.5 24.5 19.2 36.8 39.8 36.8 15.3 0 28.7-7 34-19.2h41.2c-11.4 36.1-42.1 52-74.9 52-47.9 0-80.8-34-80.8-79.6 0-45.5 33.1-80 79.9-80 50.8-0.1 82.2 39.7 78.3 90zm-115.6-29.2h73.3c-1.8-8.2-6.4-15.5-13-20.6-6.6-5.1-14.9-7.8-23.3-7.5-19.4 0-32 11.7-37 28.1z"/>
			<path id="Layer" class="s2" d="m792 49.6c0.1 3.3-0.6 6.4-1.8 9.4-1.3 2.9-3.1 5.6-5.4 7.8-2.3 2.2-5.1 4-8.1 5.1-3 1.1-6.2 1.5-9.5 1.4-3.2 0.1-6.4-0.3-9.4-1.4-3-1.1-5.7-2.8-8.1-5-2.3-2.2-4.2-4.9-5.4-7.8-1.3-3-1.9-6.1-1.9-9.3 0-3.2 0.6-6.4 1.9-9.4 1.2-2.9 3.1-5.5 5.4-7.7 2.4-2.2 5.1-3.9 8.1-5 3-1.1 6.2-1.6 9.4-1.4 14.5-0.2 24.8 9.6 24.8 23.3zm-44.8 45.1h39.8v152.9h-39.8z"/>
			<path id="Layer" fill-rule="evenodd" class="s2" d="m1196.2 181.3h-117.5c2.5 24.5 19.2 36.8 39.8 36.8 15.4 0 28.7-7 34-19.2h41.2c-11.4 36.1-42 52-74.9 52-47.9 0-80.8-34-80.8-79.6 0-45.5 33.2-80 80-80 50.7-0.1 82.2 39.7 78.2 90zm-115.5-29.2h73.2c-1.7-8.2-6.3-15.5-13-20.6-6.6-5.1-14.8-7.8-23.2-7.5-19.5 0-32 11.7-37 28.1z"/>
			<path id="Layer" class="s2" d="m1365.5 151.6v95.9h-39.9v-87.3c0-20-7.3-31.2-28.6-31.2-22.6 0-34.6 13.1-34.6 38.2v80.3h-39.9v-153h39.9v20.9c5.2-7.7 12.3-14 20.7-18.2 8.3-4.3 17.6-6.3 26.9-6 34.6 0 55.5 22.8 55.5 60.4z"/>
			<path id="Layer" fill-rule="evenodd" class="s2" d="m1549.7 181.3h-117.6c2.5 24.5 19.2 36.8 39.9 36.8 15.3 0 28.6-7 33.9-19.2h41.3c-11.5 36.1-42.1 52-75 52-47.9 0-80.8-34-80.8-79.6 0-45.5 33.2-80 80-80 50.7-0.1 82.2 39.7 78.3 90zm-115.7-29.2h73.3c-1.7-8.2-6.3-15.5-13-20.6-6.6-5.1-14.8-7.8-23.2-7.5-19.5 0-32 11.7-37.1 28.1z"/>
			<path id="Layer" class="s1" d="m922.8 153.6v32.8h43.6c-5.8 8.4-13.6 15.2-22.7 19.9-9.1 4.7-19.2 7.2-29.4 7.2-5.1 0-10.2-0.7-15.2-2l-26.5 30.4c18.1 8.2 38.1 10.9 57.7 7.8 19.5-3.2 37.8-11.9 52.4-25.3v26.3h32.9v-97.1z"/>
			<path id="Layer" class="s2" d="m913.8 49.1c-57.4 0-101.4 43.4-101.4 100.6-0.3 17 3.9 33.8 12 48.7 8.1 14.9 20 27.5 34.4 36.5l25.8-29.4c-19.4-10.2-32-30.5-32-55.7 0-36.4 26.2-62.9 61.3-62.9 11.1-0.2 22.1 2.7 31.6 8.4 9.6 5.7 17.3 14 22.3 23.9h43c-12.7-41.4-50.4-70.1-97-70.1z"/>
		</g>
	</g>
</svg>